<?xml version="1.0" encoding="utf-8"?>
<!-- Generator: Adobe Illustrator 27.5.0, SVG Export Plug-In . SVG Version: 6.00 Build 0)  -->
<svg version="1.1" id="Layer_1" xmlns="http://www.w3.org/2000/svg" xmlns:xlink="http://www.w3.org/1999/xlink" x="0px" y="0px"
	 viewBox="0 0 504 288" style="enable-background:new 0 0 504 288;" xml:space="preserve">
<g>
	<g>
		<defs>
			<rect id="SVGID_1535_" width="504" height="288"/>
		</defs>
		<use xlink:href="#SVGID_1535_"  style="overflow:visible;"/>
		<clipPath id="SVGID_00000109009728432792988440000002584804141851481990_">
			<use xlink:href="#SVGID_1535_"  style="overflow:visible;"/>
		</clipPath>
		<g style="clip-path:url(#SVGID_00000109009728432792988440000002584804141851481990_);">
			<path style="fill:#00B19C;" d="M418.873,112.169c1.833,0,3.32-1.486,3.32-3.32c0-1.833-1.486-3.32-3.32-3.32
				s-3.32,1.486-3.32,3.32C415.553,110.683,417.039,112.169,418.873,112.169z"/>
			<path style="fill:#00B19C;" d="M428.606,111.872c1.669,0,3.023-1.353,3.023-3.023c0-1.669-1.353-3.023-3.023-3.023
				c-1.669,0-3.023,1.353-3.023,3.023C425.583,110.519,426.936,111.872,428.606,111.872z"/>
			<path style="fill:#00B19C;" d="M424.941,119.482c1.669,0,3.023-1.353,3.023-3.023c0-1.67-1.353-3.023-3.023-3.023
				c-1.669,0-3.023,1.353-3.023,3.023C421.918,118.128,423.272,119.482,424.941,119.482z"/>
			<path style="fill:#00B19C;" d="M416.707,121.361c1.669,0,3.023-1.353,3.023-3.023c0-1.669-1.353-3.023-3.023-3.023
				c-1.669,0-3.023,1.353-3.023,3.023C413.684,120.008,415.038,121.361,416.707,121.361z"/>
			<circle style="fill:#00B19C;" cx="410.104" cy="113.072" r="2.996"/>
			<circle style="fill:#00B19C;" cx="410.104" cy="104.626" r="2.969"/>
			<path style="fill:#00B19C;" d="M416.707,102.329c1.64,0,2.969-1.329,2.969-2.969c0-1.64-1.329-2.969-2.969-2.969
				c-1.64,0-2.969,1.329-2.969,2.969C413.738,101,415.067,102.329,416.707,102.329z"/>
			<path style="fill:#00B19C;" d="M424.941,104.236c1.655,0,2.996-1.341,2.996-2.996c0-1.654-1.341-2.996-2.996-2.996
				c-1.655,0-2.996,1.341-2.996,2.996C421.945,102.894,423.287,104.236,424.941,104.236z"/>
			<path style="fill:#00B19C;" d="M438.339,111.386c1.401,0,2.537-1.136,2.537-2.537s-1.136-2.537-2.537-2.537
				s-2.537,1.136-2.537,2.537S436.938,111.386,438.339,111.386z"/>
			<path style="fill:#00B19C;" d="M436.411,119.832c1.401,0,2.537-1.136,2.537-2.537c0-1.401-1.136-2.537-2.537-2.537
				c-1.401,0-2.537,1.136-2.537,2.537C433.874,118.696,435.01,119.832,436.411,119.832z"/>
			<path style="fill:#00B19C;" d="M431.009,126.605c1.401,0,2.537-1.136,2.537-2.537c0-1.401-1.136-2.537-2.537-2.537
				c-1.401,0-2.537,1.136-2.537,2.537C428.473,125.469,429.608,126.605,431.009,126.605z"/>
			<path style="fill:#00B19C;" d="M423.204,130.364c1.401,0,2.537-1.136,2.537-2.537c0-1.401-1.136-2.537-2.537-2.537
				c-1.401,0-2.537,1.136-2.537,2.537C420.667,129.228,421.803,130.364,423.204,130.364z"/>
			<path style="fill:#00B19C;" d="M414.541,130.364c1.401,0,2.537-1.136,2.537-2.537c0-1.401-1.136-2.537-2.537-2.537
				c-1.401,0-2.537,1.136-2.537,2.537C412.004,129.228,413.14,130.364,414.541,130.364z"/>
			<path style="fill:#00B19C;" d="M406.736,126.578c1.386,0,2.51-1.124,2.51-2.51c0-1.386-1.124-2.51-2.51-2.51
				s-2.51,1.124-2.51,2.51C404.226,125.455,405.35,126.578,406.736,126.578z"/>
			<path style="fill:#00B19C;" d="M401.335,119.805c1.386,0,2.51-1.124,2.51-2.51c0-1.386-1.124-2.51-2.51-2.51
				c-1.386,0-2.51,1.124-2.51,2.51C398.825,118.682,399.948,119.805,401.335,119.805z"/>
			<path style="fill:#00B19C;" d="M399.407,111.332c1.371,0,2.483-1.112,2.483-2.483s-1.112-2.483-2.483-2.483
				c-1.371,0-2.483,1.112-2.483,2.483S398.036,111.332,399.407,111.332z"/>
			<path style="fill:#00B19C;" d="M401.335,102.886c1.371,0,2.483-1.112,2.483-2.483s-1.112-2.483-2.483-2.483
				c-1.371,0-2.483,1.112-2.483,2.483S399.963,102.886,401.335,102.886z"/>
			<circle style="fill:#00B19C;" cx="406.736" cy="93.63" r="2.483"/>
			<path style="fill:#00B19C;" d="M414.541,92.355c1.371,0,2.483-1.112,2.483-2.483c0-1.371-1.112-2.483-2.483-2.483
				c-1.371,0-2.483,1.112-2.483,2.483C412.058,91.243,413.17,92.355,414.541,92.355z"/>
			<path style="fill:#00B19C;" d="M423.204,92.382c1.386,0,2.51-1.124,2.51-2.51c0-1.386-1.124-2.51-2.51-2.51
				c-1.386,0-2.51,1.124-2.51,2.51C420.694,91.258,421.818,92.382,423.204,92.382z"/>
			<circle style="fill:#00B19C;" cx="431.009" cy="93.63" r="2.51"/>
			<path style="fill:#00B19C;" d="M436.411,102.913c1.386,0,2.51-1.124,2.51-2.51s-1.124-2.51-2.51-2.51
				c-1.386,0-2.51,1.124-2.51,2.51S435.025,102.913,436.411,102.913z"/>
			<path style="fill:#00B19C;" d="M448.072,110.9c1.133,0,2.051-0.918,2.051-2.051c0-1.133-0.918-2.051-2.051-2.051
				c-1.133,0-2.051,0.918-2.051,2.051C446.02,109.982,446.939,110.9,448.072,110.9z"/>
			<path style="fill:#00B19C;" d="M446.774,119.507c1.133,0,2.051-0.918,2.051-2.051c0-1.133-0.918-2.051-2.051-2.051
				c-1.133,0-2.051,0.918-2.051,2.051C444.723,118.589,445.641,119.507,446.774,119.507z"/>
			<path style="fill:#00B19C;" d="M442.998,127.349c1.133,0,2.051-0.918,2.051-2.051c0-1.133-0.918-2.051-2.051-2.051
				c-1.133,0-2.051,0.918-2.051,2.051C440.947,126.43,441.865,127.349,442.998,127.349z"/>
			<path style="fill:#00B19C;" d="M437.078,133.729c1.133,0,2.051-0.918,2.051-2.051s-0.918-2.051-2.051-2.051
				c-1.133,0-2.051,0.918-2.051,2.051S435.945,133.729,437.078,133.729z"/>
			<path style="fill:#00B19C;" d="M429.54,138.081c1.133,0,2.051-0.918,2.051-2.051c0-1.133-0.918-2.051-2.051-2.051
				c-1.133,0-2.051,0.918-2.051,2.051C427.489,137.163,428.408,138.081,429.54,138.081z"/>
			<path style="fill:#00B19C;" d="M421.055,140.018c1.133,0,2.051-0.918,2.051-2.051s-0.918-2.051-2.051-2.051
				c-1.133,0-2.051,0.918-2.051,2.051S419.922,140.018,421.055,140.018z"/>
			<path style="fill:#00B19C;" d="M412.375,139.34c1.118,0,2.024-0.906,2.024-2.024c0-1.118-0.906-2.024-2.024-2.024
				c-1.118,0-2.024,0.906-2.024,2.024C410.351,138.434,411.258,139.34,412.375,139.34z"/>
			<path style="fill:#00B19C;" d="M404.273,136.16c1.118,0,2.024-0.906,2.024-2.024c0-1.118-0.906-2.024-2.024-2.024
				s-2.024,0.906-2.024,2.024C402.249,135.254,403.156,136.16,404.273,136.16z"/>
			<circle style="fill:#00B19C;" cx="397.469" cy="128.71" r="2.024"/>
			<circle style="fill:#00B19C;" cx="392.566" cy="121.518" r="1.997"/>
			<circle style="fill:#00B19C;" cx="390" cy="113.201" r="1.997"/>
			<path style="fill:#00B19C;" d="M390,106.495c1.103,0,1.997-0.894,1.997-1.997c0-1.103-0.894-1.997-1.997-1.997
				s-1.997,0.894-1.997,1.997C388.003,105.601,388.897,106.495,390,106.495z"/>
			<path style="fill:#00B19C;" d="M392.566,98.178c1.103,0,1.997-0.894,1.997-1.997c0-1.103-0.894-1.997-1.997-1.997
				s-1.997,0.894-1.997,1.997C390.569,97.284,391.463,98.178,392.566,98.178z"/>
			<path style="fill:#00B19C;" d="M397.469,90.986c1.103,0,1.997-0.894,1.997-1.997c0-1.103-0.894-1.997-1.997-1.997
				s-1.997,0.894-1.997,1.997C395.471,90.092,396.366,90.986,397.469,90.986z"/>
			<circle style="fill:#00B19C;" cx="404.273" cy="83.563" r="1.997"/>
			<circle style="fill:#00B19C;" cx="412.375" cy="80.383" r="1.997"/>
			<path style="fill:#00B19C;" d="M421.055,81.729c1.103,0,1.997-0.894,1.997-1.997c0-1.103-0.894-1.997-1.997-1.997
				s-1.997,0.894-1.997,1.997C419.058,80.835,419.952,81.729,421.055,81.729z"/>
			<circle style="fill:#00B19C;" cx="429.54" cy="81.669" r="1.997"/>
			<path style="fill:#00B19C;" d="M437.078,88.045c1.118,0,2.024-0.906,2.024-2.024c0-1.118-0.906-2.024-2.024-2.024
				c-1.118,0-2.024,0.906-2.024,2.024C435.054,87.139,435.96,88.045,437.078,88.045z"/>
			<circle style="fill:#00B19C;" cx="442.998" cy="92.401" r="2.024"/>
			<path style="fill:#00B19C;" d="M446.774,102.267c1.118,0,2.024-0.906,2.024-2.024c0-1.118-0.906-2.024-2.024-2.024
				c-1.118,0-2.024,0.906-2.024,2.024C444.75,101.361,445.656,102.267,446.774,102.267z"/>
			<path style="fill:#00B19C;" d="M457.804,110.415c0.865,0,1.565-0.701,1.565-1.565c0-0.865-0.701-1.565-1.565-1.565
				c-0.865,0-1.565,0.701-1.565,1.565C456.239,109.714,456.94,110.415,457.804,110.415z"/>
			<path style="fill:#00B19C;" d="M456.828,119.078c0.865,0,1.565-0.701,1.565-1.565c0-0.865-0.701-1.565-1.565-1.565
				c-0.865,0-1.565,0.701-1.565,1.565C455.263,118.377,455.964,119.078,456.828,119.078z"/>
			<path style="fill:#00B19C;" d="M453.949,127.307c0.864,0,1.565-0.701,1.565-1.565c0-0.864-0.701-1.565-1.565-1.565
				c-0.865,0-1.565,0.701-1.565,1.565C452.384,126.606,453.084,127.307,453.949,127.307z"/>
			<path style="fill:#00B19C;" d="M449.311,134.688c0.865,0,1.565-0.701,1.565-1.565s-0.701-1.565-1.565-1.565
				s-1.565,0.701-1.565,1.565S448.446,134.688,449.311,134.688z"/>
			<path style="fill:#00B19C;" d="M443.146,140.853c0.865,0,1.565-0.701,1.565-1.565c0-0.864-0.701-1.565-1.565-1.565
				c-0.865,0-1.565,0.701-1.565,1.565C441.581,140.152,442.282,140.853,443.146,140.853z"/>
			<path style="fill:#00B19C;" d="M435.765,145.491c0.865,0,1.565-0.701,1.565-1.565c0-0.865-0.701-1.565-1.565-1.565
				s-1.565,0.701-1.565,1.565C434.199,144.79,434.9,145.491,435.765,145.491z"/>
			<path style="fill:#00B19C;" d="M427.536,148.37c0.865,0,1.565-0.701,1.565-1.565c0-0.864-0.701-1.565-1.565-1.565
				s-1.565,0.701-1.565,1.565C425.97,147.669,426.671,148.37,427.536,148.37z"/>
			<path style="fill:#00B19C;" d="M418.873,149.346c0.865,0,1.565-0.701,1.565-1.565s-0.701-1.565-1.565-1.565
				s-1.565,0.701-1.565,1.565S418.008,149.346,418.873,149.346z"/>
			<path style="fill:#00B19C;" d="M410.21,148.343c0.85,0,1.538-0.689,1.538-1.538c0-0.85-0.689-1.538-1.538-1.538
				c-0.85,0-1.538,0.689-1.538,1.538C408.671,147.654,409.36,148.343,410.21,148.343z"/>
			<path style="fill:#00B19C;" d="M401.981,145.464c0.85,0,1.538-0.689,1.538-1.538c0-0.85-0.689-1.538-1.538-1.538
				c-0.85,0-1.538,0.689-1.538,1.538C400.443,144.775,401.131,145.464,401.981,145.464z"/>
			<circle style="fill:#00B19C;" cx="394.599" cy="139.287" r="1.538"/>
			<circle style="fill:#00B19C;" cx="388.435" cy="133.123" r="1.538"/>
			<path style="fill:#00B19C;" d="M383.797,127.253c0.835,0,1.511-0.677,1.511-1.511c0-0.835-0.677-1.511-1.511-1.511
				c-0.835,0-1.511,0.677-1.511,1.511C382.285,126.576,382.962,127.253,383.797,127.253z"/>
			<path style="fill:#00B19C;" d="M380.917,119.024c0.835,0,1.511-0.677,1.511-1.511c0-0.835-0.677-1.511-1.511-1.511
				c-0.835,0-1.511,0.677-1.511,1.511C379.406,118.347,380.083,119.024,380.917,119.024z"/>
			<circle style="fill:#00B19C;" cx="379.941" cy="108.849" r="1.511"/>
			<path style="fill:#00B19C;" d="M380.917,101.698c0.835,0,1.511-0.677,1.511-1.511s-0.677-1.511-1.511-1.511
				c-0.835,0-1.511,0.677-1.511,1.511S380.083,101.698,380.917,101.698z"/>
			<circle style="fill:#00B19C;" cx="383.797" cy="91.958" r="1.511"/>
			<path style="fill:#00B19C;" d="M388.435,86.087c0.835,0,1.511-0.677,1.511-1.511c0-0.835-0.677-1.511-1.511-1.511
				c-0.835,0-1.511,0.677-1.511,1.511C386.923,85.411,387.6,86.087,388.435,86.087z"/>
			<circle style="fill:#00B19C;" cx="394.599" cy="78.411" r="1.511"/>
			<path style="fill:#00B19C;" d="M401.981,75.285c0.835,0,1.511-0.677,1.511-1.511s-0.677-1.511-1.511-1.511
				c-0.835,0-1.511,0.677-1.511,1.511S401.146,75.285,401.981,75.285z"/>
			<circle style="fill:#00B19C;" cx="410.21" cy="70.894" r="1.511"/>
			<circle style="fill:#00B19C;" cx="418.873" cy="69.918" r="1.511"/>
			<circle style="fill:#00B19C;" cx="427.536" cy="70.894" r="1.511"/>
			<circle style="fill:#00B19C;" cx="435.765" cy="73.773" r="1.511"/>
			<path style="fill:#00B19C;" d="M443.146,79.95c0.85,0,1.538-0.689,1.538-1.538s-0.689-1.538-1.538-1.538
				c-0.85,0-1.538,0.689-1.538,1.538S442.297,79.95,443.146,79.95z"/>
			<path style="fill:#00B19C;" d="M449.311,86.114c0.85,0,1.538-0.689,1.538-1.538c0-0.85-0.689-1.538-1.538-1.538
				s-1.538,0.689-1.538,1.538C447.772,85.426,448.461,86.114,449.311,86.114z"/>
			<path style="fill:#00B19C;" d="M453.949,93.496c0.85,0,1.538-0.689,1.538-1.538c0-0.85-0.689-1.538-1.538-1.538
				c-0.85,0-1.538,0.689-1.538,1.538C452.411,92.807,453.099,93.496,453.949,93.496z"/>
			<path style="fill:#00B19C;" d="M456.828,101.725c0.85,0,1.538-0.689,1.538-1.538c0-0.85-0.689-1.538-1.538-1.538
				c-0.85,0-1.538,0.689-1.538,1.538C455.29,101.036,455.979,101.725,456.828,101.725z"/>
			<path style="fill:#00B19C;" d="M467.537,109.902c0.581,0,1.053-0.471,1.053-1.052c0-0.581-0.471-1.053-1.053-1.053
				c-0.581,0-1.052,0.471-1.052,1.053C466.485,109.431,466.956,109.902,467.537,109.902z"/>
			<path style="fill:#00B19C;" d="M466.755,118.591c0.581,0,1.053-0.471,1.053-1.053c0-0.581-0.471-1.052-1.053-1.052
				s-1.053,0.471-1.053,1.052C465.703,118.12,466.174,118.591,466.755,118.591z"/>
			<path style="fill:#00B19C;" d="M464.434,127.001c0.581,0,1.052-0.471,1.052-1.053c0-0.581-0.471-1.052-1.052-1.052
				c-0.581,0-1.053,0.471-1.053,1.052C463.382,126.53,463.853,127.001,464.434,127.001z"/>
			<path style="fill:#00B19C;" d="M460.649,134.889c0.596,0,1.08-0.483,1.08-1.08c0-0.596-0.483-1.079-1.08-1.079
				c-0.596,0-1.079,0.483-1.079,1.079C459.569,134.406,460.052,134.889,460.649,134.889z"/>
			<circle style="fill:#00B19C;" cx="455.521" cy="140.868" r="1.08"/>
			<path style="fill:#00B19C;" d="M449.215,147.976c0.596,0,1.08-0.483,1.08-1.079c0-0.596-0.483-1.08-1.08-1.08
				s-1.08,0.483-1.08,1.08C448.135,147.493,448.618,147.976,449.215,147.976z"/>
			<path style="fill:#00B19C;" d="M441.933,152.783c0.596,0,1.079-0.483,1.079-1.079c0-0.596-0.483-1.08-1.079-1.08
				c-0.596,0-1.08,0.483-1.08,1.08C440.854,152.299,441.337,152.783,441.933,152.783z"/>
			<path style="fill:#00B19C;" d="M433.911,156.185c0.581,0,1.052-0.471,1.052-1.053s-0.471-1.053-1.052-1.053
				c-0.581,0-1.053,0.471-1.053,1.053S433.33,156.185,433.911,156.185z"/>
			<circle style="fill:#00B19C;" cx="425.405" cy="157.073" r="1.053"/>
			<circle style="fill:#00B19C;" cx="416.69" cy="157.465" r="1.053"/>
			<path style="fill:#00B19C;" d="M408.044,157.346c0.581,0,1.052-0.471,1.052-1.053s-0.471-1.053-1.052-1.053
				c-0.581,0-1.053,0.471-1.053,1.053S407.463,157.346,408.044,157.346z"/>
			<path style="fill:#00B19C;" d="M399.746,154.65c0.581,0,1.053-0.471,1.053-1.053s-0.471-1.053-1.053-1.053
				s-1.053,0.471-1.053,1.053S399.165,154.65,399.746,154.65z"/>
			<path style="fill:#00B19C;" d="M392.064,150.516c0.581,0,1.053-0.471,1.053-1.053s-0.471-1.053-1.053-1.053
				s-1.052,0.471-1.052,1.053S391.482,150.516,392.064,150.516z"/>
			<path style="fill:#00B19C;" d="M385.243,145.049c0.566,0,1.026-0.459,1.026-1.026c0-0.566-0.459-1.026-1.026-1.026
				c-0.566,0-1.026,0.459-1.026,1.026C384.217,144.59,384.676,145.049,385.243,145.049z"/>
			<path style="fill:#00B19C;" d="M379.503,138.479c0.566,0,1.026-0.459,1.026-1.026c0-0.566-0.459-1.026-1.026-1.026
				c-0.566,0-1.026,0.459-1.026,1.026C378.477,138.02,378.936,138.479,379.503,138.479z"/>
			<circle style="fill:#00B19C;" cx="375.028" cy="129.964" r="1.026"/>
			<circle style="fill:#00B19C;" cx="371.962" cy="121.796" r="1.026"/>
			<circle style="fill:#00B19C;" cx="370.404" cy="113.212" r="1.026"/>
			<path style="fill:#00B19C;" d="M370.404,105.513c0.566,0,1.026-0.459,1.026-1.026s-0.459-1.025-1.026-1.025
				s-1.026,0.459-1.026,1.025S369.838,105.513,370.404,105.513z"/>
			<path style="fill:#00B19C;" d="M371.962,96.928c0.566,0,1.026-0.459,1.026-1.026c0-0.566-0.459-1.026-1.026-1.026
				s-1.026,0.459-1.026,1.026C370.936,96.469,371.396,96.928,371.962,96.928z"/>
			<circle style="fill:#00B19C;" cx="375.028" cy="87.735" r="0.999"/>
			<path style="fill:#00B19C;" d="M379.503,81.271c0.566,0,1.026-0.459,1.026-1.026c0-0.566-0.459-1.026-1.026-1.026
				c-0.566,0-1.026,0.459-1.026,1.026C378.477,80.812,378.936,81.271,379.503,81.271z"/>
			<circle style="fill:#00B19C;" cx="385.243" cy="73.675" r="0.999"/>
			<path style="fill:#00B19C;" d="M392.064,69.234c0.552,0,0.999-0.447,0.999-0.999c0-0.551-0.447-0.998-0.999-0.998
				c-0.551,0-0.999,0.447-0.999,0.998C391.065,68.787,391.512,69.234,392.064,69.234z"/>
			<circle style="fill:#00B19C;" cx="399.746" cy="64.101" r="0.999"/>
			<path style="fill:#00B19C;" d="M408.044,62.431c0.566,0,1.025-0.459,1.025-1.025c0-0.566-0.459-1.026-1.025-1.026
				c-0.566,0-1.026,0.459-1.026,1.026C407.018,61.972,407.478,62.431,408.044,62.431z"/>
			<path style="fill:#00B19C;" d="M416.69,61.259c0.566,0,1.026-0.459,1.026-1.026c0-0.566-0.459-1.025-1.026-1.025
				c-0.566,0-1.026,0.459-1.026,1.025C415.664,60.8,416.123,61.259,416.69,61.259z"/>
			<circle style="fill:#00B19C;" cx="425.405" cy="60.625" r="1.026"/>
			<path style="fill:#00B19C;" d="M433.911,63.592c0.566,0,1.025-0.459,1.025-1.026c0-0.566-0.459-1.026-1.025-1.026
				c-0.566,0-1.026,0.459-1.026,1.026C432.885,63.133,433.345,63.592,433.911,63.592z"/>
			<path style="fill:#00B19C;" d="M441.933,67.021c0.566,0,1.025-0.459,1.025-1.026c0-0.566-0.459-1.026-1.025-1.026
				c-0.566,0-1.026,0.459-1.026,1.026C440.908,66.562,441.367,67.021,441.933,67.021z"/>
			<circle style="fill:#00B19C;" cx="449.215" cy="70.802" r="1.026"/>
			<path style="fill:#00B19C;" d="M455.521,77.857c0.566,0,1.026-0.459,1.026-1.025s-0.459-1.026-1.026-1.026
				s-1.026,0.459-1.026,1.026S454.954,77.857,455.521,77.857z"/>
			<path style="fill:#00B19C;" d="M460.649,84.942c0.581,0,1.053-0.471,1.053-1.053c0-0.581-0.471-1.052-1.053-1.052
				c-0.581,0-1.053,0.471-1.053,1.052C459.596,84.471,460.067,84.942,460.649,84.942z"/>
			<path style="fill:#00B19C;" d="M464.434,92.802c0.581,0,1.052-0.471,1.052-1.053s-0.471-1.052-1.052-1.052
				c-0.581,0-1.053,0.471-1.053,1.052S463.853,92.802,464.434,92.802z"/>
			<circle style="fill:#00B19C;" cx="466.755" cy="100.16" r="1.053"/>
			<path style="fill:#00B19C;" d="M477.27,109.416c0.313,0,0.567-0.254,0.567-0.567c0-0.313-0.254-0.567-0.567-0.567
				c-0.313,0-0.567,0.254-0.567,0.567C476.703,109.162,476.957,109.416,477.27,109.416z"/>
			<path style="fill:#00B19C;" d="M476.618,118.12c0.313,0,0.567-0.254,0.567-0.567c0-0.313-0.254-0.567-0.567-0.567
				c-0.313,0-0.567,0.254-0.567,0.567C476.051,117.866,476.305,118.12,476.618,118.12z"/>
			<circle style="fill:#00B19C;" cx="474.676" cy="126.062" r="0.567"/>
			<path style="fill:#00B19C;" d="M471.487,134.754c0.313,0,0.567-0.254,0.567-0.567s-0.254-0.567-0.567-0.567
				s-0.567,0.254-0.567,0.567S471.174,134.754,471.487,134.754z"/>
			<path style="fill:#00B19C;" d="M467.123,142.313c0.313,0,0.567-0.254,0.567-0.567c0-0.313-0.254-0.567-0.567-0.567
				c-0.313,0-0.567,0.254-0.567,0.567C466.556,142.059,466.81,142.313,467.123,142.313z"/>
			<path style="fill:#00B19C;" d="M461.681,149.136c0.313,0,0.567-0.254,0.567-0.567c0-0.313-0.254-0.567-0.567-0.567
				c-0.313,0-0.567,0.254-0.567,0.567C461.114,148.883,461.368,149.136,461.681,149.136z"/>
			<path style="fill:#00B19C;" d="M455.283,155.073c0.313,0,0.567-0.254,0.567-0.567c0-0.313-0.254-0.567-0.567-0.567
				c-0.313,0-0.567,0.254-0.567,0.567C454.716,154.819,454.97,155.073,455.283,155.073z"/>
			<path style="fill:#00B19C;" d="M448.072,159.99c0.313,0,0.567-0.254,0.567-0.567c0-0.313-0.254-0.567-0.567-0.567
				s-0.567,0.254-0.567,0.567C447.505,159.736,447.759,159.99,448.072,159.99z"/>
			<path style="fill:#00B19C;" d="M440.208,163.777c0.313,0,0.567-0.254,0.567-0.567s-0.254-0.567-0.567-0.567
				c-0.313,0-0.567,0.254-0.567,0.567S439.895,163.777,440.208,163.777z"/>
			<path style="fill:#00B19C;" d="M431.867,166.349c0.313,0,0.567-0.254,0.567-0.567c0-0.313-0.254-0.567-0.567-0.567
				c-0.313,0-0.567,0.254-0.567,0.567C431.301,166.096,431.554,166.349,431.867,166.349z"/>
			<path style="fill:#00B19C;" d="M423.237,167.65c0.313,0,0.567-0.254,0.567-0.567c0-0.313-0.254-0.567-0.567-0.567
				c-0.313,0-0.567,0.254-0.567,0.567C422.67,167.396,422.924,167.65,423.237,167.65z"/>
			<path style="fill:#00B19C;" d="M414.509,167.65c0.313,0,0.567-0.254,0.567-0.567c0-0.313-0.254-0.567-0.567-0.567
				c-0.313,0-0.567,0.254-0.567,0.567C413.942,167.396,414.196,167.65,414.509,167.65z"/>
			<path style="fill:#00B19C;" d="M405.878,166.349c0.313,0,0.567-0.254,0.567-0.567c0-0.313-0.254-0.567-0.567-0.567
				c-0.313,0-0.567,0.254-0.567,0.567C405.311,166.096,405.565,166.349,405.878,166.349z"/>
			<path style="fill:#00B19C;" d="M397.538,163.777c0.313,0,0.567-0.254,0.567-0.567s-0.254-0.567-0.567-0.567
				s-0.567,0.254-0.567,0.567S397.225,163.777,397.538,163.777z"/>
			<path style="fill:#00B19C;" d="M389.674,159.99c0.313,0,0.567-0.254,0.567-0.567c0-0.313-0.254-0.567-0.567-0.567
				c-0.313,0-0.567,0.254-0.567,0.567C389.107,159.736,389.361,159.99,389.674,159.99z"/>
			<path style="fill:#00B19C;" d="M382.463,155.046c0.298,0,0.54-0.242,0.54-0.54c0-0.298-0.242-0.54-0.54-0.54
				s-0.54,0.242-0.54,0.54C381.923,154.804,382.165,155.046,382.463,155.046z"/>
			<path style="fill:#00B19C;" d="M376.065,149.109c0.298,0,0.54-0.242,0.54-0.54c0-0.298-0.242-0.54-0.54-0.54
				c-0.298,0-0.54,0.242-0.54,0.54C375.525,148.868,375.766,149.109,376.065,149.109z"/>
			<path style="fill:#00B19C;" d="M370.623,142.286c0.298,0,0.54-0.242,0.54-0.54c0-0.298-0.242-0.54-0.54-0.54
				c-0.298,0-0.54,0.242-0.54,0.54C370.083,142.044,370.325,142.286,370.623,142.286z"/>
			<path style="fill:#00B19C;" d="M366.259,134.727c0.298,0,0.54-0.242,0.54-0.54c0-0.298-0.242-0.54-0.54-0.54
				c-0.298,0-0.54,0.242-0.54,0.54C365.719,134.485,365.961,134.727,366.259,134.727z"/>
			<circle style="fill:#00B19C;" cx="363.07" cy="126.062" r="0.54"/>
			<path style="fill:#00B19C;" d="M361.128,118.066c0.283,0,0.513-0.229,0.513-0.513c0-0.283-0.229-0.513-0.513-0.513
				c-0.283,0-0.513,0.229-0.513,0.513C360.615,117.836,360.845,118.066,361.128,118.066z"/>
			<circle style="fill:#00B19C;" cx="360.475" cy="108.849" r="0.513"/>
			<path style="fill:#00B19C;" d="M361.128,100.659c0.283,0,0.513-0.23,0.513-0.513c0-0.283-0.229-0.513-0.513-0.513
				c-0.283,0-0.513,0.23-0.513,0.513C360.615,100.429,360.845,100.659,361.128,100.659z"/>
			<circle style="fill:#00B19C;" cx="363.07" cy="91.636" r="0.513"/>
			<path style="fill:#00B19C;" d="M366.259,84.024c0.283,0,0.513-0.23,0.513-0.513c0-0.283-0.229-0.513-0.513-0.513
				c-0.283,0-0.513,0.23-0.513,0.513C365.746,83.795,365.975,84.024,366.259,84.024z"/>
			<circle style="fill:#00B19C;" cx="370.623" cy="75.953" r="0.513"/>
			<path style="fill:#00B19C;" d="M376.065,69.642c0.283,0,0.513-0.23,0.513-0.513c0-0.283-0.229-0.513-0.513-0.513
				c-0.283,0-0.513,0.23-0.513,0.513C375.552,69.412,375.781,69.642,376.065,69.642z"/>
			<circle style="fill:#00B19C;" cx="382.463" cy="63.193" r="0.513"/>
			<path style="fill:#00B19C;" d="M389.674,58.789c0.283,0,0.513-0.23,0.513-0.513s-0.229-0.513-0.513-0.513
				c-0.283,0-0.513,0.23-0.513,0.513S389.391,58.789,389.674,58.789z"/>
			<path style="fill:#00B19C;" d="M397.538,55.002c0.283,0,0.513-0.229,0.513-0.513c0-0.283-0.23-0.513-0.513-0.513
				s-0.513,0.229-0.513,0.513C397.025,54.772,397.255,55.002,397.538,55.002z"/>
			<circle style="fill:#00B19C;" cx="405.878" cy="51.916" r="0.513"/>
			<path style="fill:#00B19C;" d="M414.509,51.128c0.283,0,0.513-0.229,0.513-0.513c0-0.283-0.23-0.513-0.513-0.513
				s-0.513,0.229-0.513,0.513C413.996,50.899,414.226,51.128,414.509,51.128z"/>
			<path style="fill:#00B19C;" d="M423.237,51.128c0.283,0,0.513-0.229,0.513-0.513c0-0.283-0.229-0.513-0.513-0.513
				c-0.283,0-0.513,0.229-0.513,0.513C422.724,50.899,422.954,51.128,423.237,51.128z"/>
			<circle style="fill:#00B19C;" cx="431.867" cy="51.916" r="0.513"/>
			<path style="fill:#00B19C;" d="M440.208,55.029c0.298,0,0.54-0.242,0.54-0.54c0-0.298-0.242-0.54-0.54-0.54
				c-0.298,0-0.54,0.242-0.54,0.54C439.668,54.787,439.91,55.029,440.208,55.029z"/>
			<circle style="fill:#00B19C;" cx="448.072" cy="58.276" r="0.54"/>
			<path style="fill:#00B19C;" d="M455.283,63.732c0.298,0,0.54-0.242,0.54-0.54s-0.242-0.54-0.54-0.54
				c-0.298,0-0.54,0.242-0.54,0.54S454.985,63.732,455.283,63.732z"/>
			<circle style="fill:#00B19C;" cx="461.681" cy="69.129" r="0.54"/>
			<path style="fill:#00B19C;" d="M467.123,76.493c0.298,0,0.54-0.242,0.54-0.54c0-0.298-0.242-0.54-0.54-0.54
				c-0.298,0-0.54,0.242-0.54,0.54C466.583,76.251,466.825,76.493,467.123,76.493z"/>
			<path style="fill:#00B19C;" d="M471.487,84.078c0.313,0,0.567-0.254,0.567-0.567c0-0.313-0.254-0.567-0.567-0.567
				s-0.567,0.254-0.567,0.567C470.92,83.825,471.174,84.078,471.487,84.078z"/>
			<path style="fill:#00B19C;" d="M474.676,92.203c0.313,0,0.567-0.254,0.567-0.567c0-0.313-0.254-0.567-0.567-0.567
				c-0.313,0-0.567,0.254-0.567,0.567C474.109,91.95,474.363,92.203,474.676,92.203z"/>
			<circle style="fill:#00B19C;" cx="476.618" cy="100.146" r="0.567"/>
			<path style="fill:#00B19C;" d="M487.003,108.957c0.06,0,0.108-0.048,0.108-0.108c0-0.06-0.048-0.108-0.108-0.108
				s-0.108,0.048-0.108,0.108C486.895,108.909,486.943,108.957,487.003,108.957z"/>
			<path style="fill:#00B19C;" d="M486.444,117.67c0.06,0,0.108-0.048,0.108-0.108s-0.048-0.108-0.108-0.108
				c-0.06,0-0.108,0.048-0.108,0.108S486.384,117.67,486.444,117.67z"/>
			<path style="fill:#00B19C;" d="M484.775,126.239c0.06,0,0.108-0.048,0.108-0.108s-0.048-0.108-0.108-0.108
				s-0.108,0.048-0.108,0.108S484.715,126.239,484.775,126.239z"/>
			<path style="fill:#00B19C;" d="M482.024,134.524c0.06,0,0.108-0.048,0.108-0.108s-0.048-0.108-0.108-0.108
				c-0.06,0-0.108,0.048-0.108,0.108S481.964,134.524,482.024,134.524z"/>
			<path style="fill:#00B19C;" d="M478.236,142.39c0.06,0,0.108-0.048,0.108-0.108c0-0.06-0.048-0.108-0.108-0.108
				c-0.06,0-0.108,0.048-0.108,0.108C478.128,142.342,478.176,142.39,478.236,142.39z"/>
			<path style="fill:#00B19C;" d="M473.473,149.707c0.06,0,0.108-0.048,0.108-0.108c0-0.06-0.048-0.108-0.108-0.108
				s-0.108,0.048-0.108,0.108C473.365,149.658,473.414,149.707,473.473,149.707z"/>
			<path style="fill:#00B19C;" d="M467.814,156.354c0.06,0,0.108-0.048,0.108-0.108s-0.048-0.108-0.108-0.108
				s-0.108,0.048-0.108,0.108S467.754,156.354,467.814,156.354z"/>
			<path style="fill:#00B19C;" d="M461.351,162.224c0.06,0,0.108-0.048,0.108-0.108c0-0.06-0.048-0.108-0.108-0.108
				s-0.108,0.048-0.108,0.108C461.243,162.175,461.292,162.224,461.351,162.224z"/>
			<path style="fill:#00B19C;" d="M454.191,167.218c0.06,0,0.108-0.048,0.108-0.108c0-0.06-0.048-0.108-0.108-0.108
				s-0.108,0.048-0.108,0.108C454.083,167.17,454.131,167.218,454.191,167.218z"/>
			<path style="fill:#00B19C;" d="M446.451,171.257c0.06,0,0.108-0.048,0.108-0.108s-0.048-0.108-0.108-0.108
				s-0.108,0.048-0.108,0.108S446.391,171.257,446.451,171.257z"/>
			<path style="fill:#00B19C;" d="M438.258,174.272c0.06,0,0.108-0.048,0.108-0.108s-0.048-0.108-0.108-0.108
				c-0.06,0-0.108,0.048-0.108,0.108S438.198,174.272,438.258,174.272z"/>
			<path style="fill:#00B19C;" d="M429.746,176.214c0.06,0,0.108-0.048,0.108-0.108c0-0.06-0.048-0.108-0.108-0.108
				s-0.108,0.048-0.108,0.108C429.638,176.166,429.687,176.214,429.746,176.214z"/>
			<path style="fill:#00B19C;" d="M421.056,177.053c0.06,0,0.108-0.048,0.108-0.108s-0.048-0.108-0.108-0.108
				s-0.108,0.048-0.108,0.108S420.997,177.053,421.056,177.053z"/>
			<path style="fill:#00B19C;" d="M412.331,176.773c0.06,0,0.108-0.048,0.108-0.108c0-0.06-0.048-0.108-0.108-0.108
				c-0.06,0-0.108,0.048-0.108,0.108C412.223,176.724,412.271,176.773,412.331,176.773z"/>
			<path style="fill:#00B19C;" d="M403.712,175.379c0.06,0,0.108-0.048,0.108-0.108c0-0.06-0.048-0.108-0.108-0.108
				s-0.108,0.048-0.108,0.108C403.604,175.331,403.653,175.379,403.712,175.379z"/>
			<path style="fill:#00B19C;" d="M395.343,172.895c0.06,0,0.108-0.048,0.108-0.108s-0.048-0.108-0.108-0.108
				s-0.108,0.048-0.108,0.108S395.283,172.895,395.343,172.895z"/>
			<path style="fill:#00B19C;" d="M387.36,169.361c0.06,0,0.108-0.048,0.108-0.108c0-0.06-0.048-0.108-0.108-0.108
				c-0.06,0-0.108,0.048-0.108,0.108C387.252,169.313,387.3,169.361,387.36,169.361z"/>
			<path style="fill:#00B19C;" d="M379.894,164.809c0.045,0,0.081-0.036,0.081-0.081c0-0.045-0.036-0.081-0.081-0.081
				c-0.045,0-0.081,0.036-0.081,0.081C379.813,164.773,379.85,164.809,379.894,164.809z"/>
			<path style="fill:#00B19C;" d="M373.069,159.366c0.045,0,0.081-0.036,0.081-0.081c0-0.045-0.036-0.081-0.081-0.081
				c-0.045,0-0.081,0.036-0.081,0.081C372.988,159.329,373.024,159.366,373.069,159.366z"/>
			<path style="fill:#00B19C;" d="M366.995,153.094c0.045,0,0.081-0.036,0.081-0.081c0-0.045-0.036-0.081-0.081-0.081
				c-0.045,0-0.081,0.036-0.081,0.081C366.914,153.058,366.951,153.094,366.995,153.094z"/>
			<circle style="fill:#00B19C;" cx="361.774" cy="146.017" r="0.081"/>
			<path style="fill:#00B19C;" d="M357.49,138.491c0.045,0,0.081-0.036,0.081-0.081c0-0.045-0.036-0.081-0.081-0.081
				s-0.081,0.036-0.081,0.081C357.409,138.455,357.445,138.491,357.49,138.491z"/>
			<path style="fill:#00B19C;" d="M354.214,130.399c0.045,0,0.081-0.036,0.081-0.081c0-0.045-0.036-0.081-0.081-0.081
				c-0.045,0-0.081,0.036-0.081,0.081C354.133,130.363,354.169,130.399,354.214,130.399z"/>
			<path style="fill:#00B19C;" d="M351.999,121.954c0.045,0,0.081-0.036,0.081-0.081c0-0.045-0.036-0.081-0.081-0.081
				c-0.045,0-0.081,0.036-0.081,0.081C351.918,121.918,351.954,121.954,351.999,121.954z"/>
			<circle style="fill:#00B19C;" cx="350.883" cy="113.215" r="0.081"/>
			<path style="fill:#00B19C;" d="M350.883,104.565c0.045,0,0.081-0.036,0.081-0.081c0-0.045-0.036-0.081-0.081-0.081
				s-0.081,0.036-0.081,0.081C350.802,104.529,350.838,104.565,350.883,104.565z"/>
			<circle style="fill:#00B19C;" cx="351.999" cy="95.826" r="0.081"/>
			<path style="fill:#00B19C;" d="M354.214,87.462c0.045,0,0.081-0.036,0.081-0.081c0-0.045-0.036-0.081-0.081-0.081
				c-0.045,0-0.081,0.036-0.081,0.081C354.133,87.426,354.169,87.462,354.214,87.462z"/>
			<path style="fill:#00B19C;" d="M357.49,79.37c0.045,0,0.081-0.036,0.081-0.081s-0.036-0.081-0.081-0.081
				s-0.081,0.036-0.081,0.081S357.445,79.37,357.49,79.37z"/>
			<path style="fill:#00B19C;" d="M361.774,71.763c0.045,0,0.081-0.036,0.081-0.081s-0.036-0.081-0.081-0.081
				c-0.045,0-0.081,0.036-0.081,0.081S361.729,71.763,361.774,71.763z"/>
			<path style="fill:#00B19C;" d="M366.995,64.739c0.03,0,0.054-0.024,0.054-0.054c0-0.03-0.024-0.054-0.054-0.054
				c-0.03,0-0.054,0.024-0.054,0.054C366.941,64.715,366.966,64.739,366.995,64.739z"/>
			<circle style="fill:#00B19C;" cx="373.069" cy="58.414" r="0.054"/>
			<path style="fill:#00B19C;" d="M379.894,53.052c0.045,0,0.081-0.036,0.081-0.081c0-0.045-0.036-0.081-0.081-0.081
				c-0.045,0-0.081,0.036-0.081,0.081C379.813,53.016,379.85,53.052,379.894,53.052z"/>
			<circle style="fill:#00B19C;" cx="387.36" cy="48.445" r="0.081"/>
			<path style="fill:#00B19C;" d="M395.343,44.992c0.045,0,0.081-0.036,0.081-0.081s-0.036-0.081-0.081-0.081
				c-0.045,0-0.081,0.036-0.081,0.081S395.298,44.992,395.343,44.992z"/>
			<path style="fill:#00B19C;" d="M403.712,42.508c0.045,0,0.081-0.036,0.081-0.081c0-0.045-0.036-0.081-0.081-0.081
				s-0.081,0.036-0.081,0.081C403.631,42.472,403.668,42.508,403.712,42.508z"/>
			<path style="fill:#00B19C;" d="M412.331,41.115c0.045,0,0.081-0.036,0.081-0.081s-0.036-0.081-0.081-0.081
				c-0.045,0-0.081,0.036-0.081,0.081S412.286,41.115,412.331,41.115z"/>
			<path style="fill:#00B19C;" d="M421.056,40.835c0.045,0,0.081-0.036,0.081-0.081s-0.036-0.081-0.081-0.081
				c-0.045,0-0.081,0.036-0.081,0.081S421.012,40.835,421.056,40.835z"/>
			<path style="fill:#00B19C;" d="M429.746,41.673c0.045,0,0.081-0.036,0.081-0.081s-0.036-0.081-0.081-0.081
				s-0.081,0.036-0.081,0.081S429.702,41.673,429.746,41.673z"/>
			<path style="fill:#00B19C;" d="M438.258,43.616c0.045,0,0.081-0.036,0.081-0.081c0-0.045-0.036-0.081-0.081-0.081
				c-0.045,0-0.081,0.036-0.081,0.081C438.177,43.58,438.213,43.616,438.258,43.616z"/>
			<path style="fill:#00B19C;" d="M446.451,46.631c0.045,0,0.081-0.036,0.081-0.081c0-0.045-0.036-0.081-0.081-0.081
				s-0.081,0.036-0.081,0.081C446.37,46.595,446.406,46.631,446.451,46.631z"/>
			<path style="fill:#00B19C;" d="M454.191,50.669c0.045,0,0.081-0.036,0.081-0.081s-0.036-0.081-0.081-0.081
				c-0.045,0-0.081,0.036-0.081,0.081S454.146,50.669,454.191,50.669z"/>
			<path style="fill:#00B19C;" d="M461.351,55.664c0.045,0,0.081-0.036,0.081-0.081c0-0.045-0.036-0.081-0.081-0.081
				c-0.045,0-0.081,0.036-0.081,0.081C461.27,55.628,461.307,55.664,461.351,55.664z"/>
			<circle style="fill:#00B19C;" cx="467.814" cy="61.452" r="0.081"/>
			<circle style="fill:#00B19C;" cx="473.473" cy="68.1" r="0.081"/>
			<path style="fill:#00B19C;" d="M478.236,75.498c0.045,0,0.081-0.036,0.081-0.081s-0.036-0.081-0.081-0.081
				c-0.045,0-0.081,0.036-0.081,0.081S478.191,75.498,478.236,75.498z"/>
			<path style="fill:#00B19C;" d="M482.024,83.363c0.045,0,0.081-0.036,0.081-0.081c0-0.045-0.036-0.081-0.081-0.081
				c-0.045,0-0.081,0.036-0.081,0.081C481.943,83.327,481.979,83.363,482.024,83.363z"/>
			<path style="fill:#00B19C;" d="M484.775,91.676c0.06,0,0.108-0.048,0.108-0.108c0-0.06-0.048-0.108-0.108-0.108
				s-0.108,0.048-0.108,0.108C484.667,91.628,484.715,91.676,484.775,91.676z"/>
			<path style="fill:#00B19C;" d="M486.444,100.245c0.06,0,0.108-0.048,0.108-0.108s-0.048-0.108-0.108-0.108
				c-0.06,0-0.108,0.048-0.108,0.108S486.384,100.245,486.444,100.245z"/>
		</g>
		<path style="clip-path:url(#SVGID_00000109009728432792988440000002584804141851481990_);fill:#00B19C;" d="M25.179,194.706
			c18.942,7.062,34.35,21.013,49.573,34.315c15.223,13.302,31.418,26.617,50.925,31.925c22.736,6.186,46.835,0.697,69.704-4.978
			c22.869-5.675,46.784-11.555,69.708-6.104c22.924,5.452,44.073,26.322,41.135,49.701c-2.034,16.186-15.014,29.335-29.879,36.054
			c-14.865,6.719-31.507,8.118-47.783,9.225c-63.107,4.292-126.417,5.611-189.648,3.949c-17.454-0.459-35.639-1.34-50.923-9.782
			c-20.965-11.581-32.544-35.712-35.139-59.522C-52.353,231.712-35.989,171.9,25.179,194.706z"/>
		<path style="clip-path:url(#SVGID_00000109009728432792988440000002584804141851481990_);fill:#FFFFFF;" d="M13.316,210.443
			c9.071,6.845,15.269,17.804,21.463,28.315s12.903,21.144,22.526,26.902c11.217,6.712,24.836,5.913,37.828,4.849
			c12.992-1.064,26.569-2.141,37.991,4.11c11.422,6.251,19.683,22.423,14.759,37.438c-3.409,10.395-12.209,17.52-21.089,20.202
			s-17.942,1.662-26.766,0.494c-34.217-4.531-68.114-11.039-101.541-19.496c-9.227-2.335-18.783-5.031-25.707-12.357
			c-9.498-10.049-12.195-27.248-10.155-43.191C-33.282,225.72-15.974,188.338,13.316,210.443z"/>
		<path style="clip-path:url(#SVGID_00000109009728432792988440000002584804141851481990_);fill:#00B19C;" d="M289.501,34.842
			c9.439,18,31.496,28.39,51.385,24.206c11.748-2.472,22.152-9.328,33.765-12.371c11.613-3.044,26.411-0.663,31.567,10.178
			c7.66,16.104-11.781,34.062-8.13,51.517c2.504,11.97,15.615,19.277,27.844,19.369c12.229,0.092,23.755-5.265,34.824-10.465
			c11.069-5.199,22.664-10.463,34.89-10.162c10.013,0.246,19.832,4.247,29.792,3.19c16.321-1.731,28.411-16.733,33.39-32.373
			c8.096-25.432,1.844-54.137-13.074-76.267c-14.918-22.131-37.71-38.119-62.297-48.503c-41.918-17.703-90.088-19.1-133.388-5.565
			C314.06-41.15,265.435-11.053,289.501,34.842z"/>
		<path style="clip-path:url(#SVGID_00000109009728432792988440000002584804141851481990_);fill:#FFFFFF;" d="M340.846,23.3
			c10.27,12.747,29.321,17.51,44.382,11.096c8.896-3.788,16.045-10.831,24.744-15.051c8.7-4.219,20.763-4.651,26.531,3.109
			c8.568,11.527-3.986,28.753,1.626,41.973c3.848,9.066,15.349,12.79,25.026,10.952c9.676-1.838,17.946-7.872,25.879-13.71
			c7.933-5.838,16.272-11.808,25.978-13.48c7.95-1.37,16.332,0.256,24.037-2.135c12.625-3.918,19.832-17.66,21.322-30.795
			c2.423-21.358-7.002-43.061-22.247-58.215c-15.245-15.154-35.751-24.225-56.799-28.588c-35.885-7.437-74.162-1.014-106.258,16.445
			C348.376-40.578,314.66-9.2,340.846,23.3z"/>
		<g style="clip-path:url(#SVGID_00000109009728432792988440000002584804141851481990_);">
			<path style="fill:#FFFFFF;" d="M314.501,307.304c-14.73,0-29.107-8.422-38.427-17.393c-8.387-8.072-15.16-17.777-21.71-27.162
				c-4.252-6.093-8.649-12.393-13.445-18.186c-8.596-10.383-26.276-27.578-48.195-26.006c-15.948,1.136-29.094,11.775-41.808,22.065
				c-1.737,1.406-3.465,2.805-5.19,4.171c-19.553,15.484-36.654,20.494-50.822,14.894c-12.673-5.009-19.868-17.71-23.672-27.481
				c-2.045-5.254-3.638-10.756-5.179-16.077c-1.827-6.313-3.718-12.842-6.367-18.953c-14.295-32.976-53.03-52.948-88.183-45.473
				l-0.209-0.979c35.606-7.566,74.833,12.657,89.309,46.053c2.675,6.171,4.573,12.73,6.41,19.073
				c1.534,5.301,3.121,10.781,5.149,15.992c3.731,9.587,10.771,22.038,23.107,26.915c13.817,5.462,30.584,0.497,49.834-14.748
				c1.723-1.364,3.448-2.761,5.183-4.165c12.833-10.387,26.104-21.127,42.366-22.286c22.352-1.593,40.317,15.836,49.035,26.366
				c4.823,5.824,9.231,12.142,13.495,18.251c6.523,9.346,13.268,19.01,21.584,27.014c12.119,11.665,32.908,22.406,51.614,14.272
				l0.398,0.918C324.091,306.418,319.276,307.304,314.501,307.304z"/>
		</g>
		<g style="clip-path:url(#SVGID_00000109009728432792988440000002584804141851481990_);">
			<path style="fill:#FFFFFF;" d="M526.96,147.807c-0.558-14.585-1.189-31.116-8.5-44.946c-6.707-12.69-22.066-23.993-37.326-19.942
				c-5.594,1.485-10.955,4.88-16.14,8.164c-8.807,5.578-17.125,10.847-26.309,7.287c-9.438-3.657-12.921-15.185-13.033-24.753
				c-0.036-3.104,0.154-6.274,0.339-9.339c0.393-6.512,0.798-13.245-0.995-19.538c-4.758-16.692-23.046-25.214-39.061-26.255
				c-12.089-0.788-24.266,1.618-36.039,3.944c-4.614,0.912-9.386,1.854-14.093,2.593c-21.509,3.378-37.626,0.887-49.267-7.618
				c-7.714-5.636-12.971-15.648-13.392-25.506c-0.333-7.798,2.352-14.59,7.559-19.123l0.656,0.754
				c-4.973,4.33-7.536,10.838-7.216,18.326c0.408,9.566,5.504,19.278,12.983,24.741c11.416,8.34,27.287,10.773,48.522,7.437
				c4.688-0.736,9.448-1.676,14.053-2.586c11.839-2.338,24.082-4.756,36.298-3.961c16.365,1.064,35.066,9.819,39.957,26.98
				c1.841,6.456,1.43,13.276,1.032,19.871c-0.184,3.048-0.373,6.199-0.337,9.268c0.108,9.241,3.422,20.355,12.395,23.833
				c8.709,3.372,16.823-1.761,25.412-7.2c5.249-3.324,10.676-6.762,16.419-8.286c15.751-4.187,31.577,7.409,38.467,20.442
				c7.416,14.031,8.053,30.683,8.615,45.374L526.96,147.807z"/>
		</g>
		<g style="clip-path:url(#SVGID_00000109009728432792988440000002584804141851481990_);">
			
				<rect x="106.994" y="182.464" transform="matrix(0.7071 -0.7071 0.7071 0.7071 -110.3636 134.7613)" style="fill:#FFFFFF;" width="1" height="36.281"/>
		</g>
		<g style="clip-path:url(#SVGID_00000109009728432792988440000002584804141851481990_);">
			
				<rect x="469.761" y="131.083" transform="matrix(0.7071 -0.7071 0.7071 0.7071 34.7858 375.1678)" style="fill:#FFFFFF;" width="1" height="29.022"/>
		</g>
		<g style="clip-path:url(#SVGID_00000109009728432792988440000002584804141851481990_);">
			<g>
				<path style="fill:#FFFFFF;" d="M43.223,56.506c0.56,0,1.013-0.454,1.013-1.014c0-0.56-0.454-1.013-1.013-1.013
					s-1.013,0.454-1.013,1.013C42.21,56.052,42.664,56.506,43.223,56.506z"/>
				<path style="fill:#FFFFFF;" d="M53.1,56.506c0.56,0,1.013-0.454,1.013-1.014c0-0.56-0.454-1.013-1.013-1.013
					s-1.013,0.454-1.013,1.013C52.087,56.052,52.541,56.506,53.1,56.506z"/>
				<path style="fill:#FFFFFF;" d="M62.978,56.506c0.56,0,1.013-0.454,1.013-1.014c0-0.56-0.454-1.013-1.013-1.013
					s-1.013,0.454-1.013,1.013C61.964,56.052,62.418,56.506,62.978,56.506z"/>
				<path style="fill:#FFFFFF;" d="M72.855,56.506c0.56,0,1.013-0.454,1.013-1.014c0-0.56-0.454-1.013-1.013-1.013
					s-1.013,0.454-1.013,1.013C71.842,56.052,72.295,56.506,72.855,56.506z"/>
				<path style="fill:#FFFFFF;" d="M82.732,56.506c0.56,0,1.014-0.454,1.014-1.014c0-0.56-0.454-1.013-1.014-1.013
					c-0.56,0-1.013,0.454-1.013,1.013C81.719,56.052,82.173,56.506,82.732,56.506z"/>
				<circle style="fill:#FFFFFF;" cx="43.223" cy="65.369" r="1.013"/>
				<circle style="fill:#FFFFFF;" cx="53.1" cy="65.369" r="1.013"/>
				<circle style="fill:#FFFFFF;" cx="62.978" cy="65.369" r="1.013"/>
				<circle style="fill:#FFFFFF;" cx="72.855" cy="65.369" r="1.013"/>
				<path style="fill:#FFFFFF;" d="M82.732,66.383c0.56,0,1.014-0.454,1.014-1.013s-0.454-1.013-1.014-1.013
					c-0.56,0-1.013,0.454-1.013,1.013S82.173,66.383,82.732,66.383z"/>
				<circle style="fill:#FFFFFF;" cx="43.223" cy="75.247" r="1.013"/>
				<circle style="fill:#FFFFFF;" cx="53.1" cy="75.247" r="1.013"/>
				<circle style="fill:#FFFFFF;" cx="62.978" cy="75.247" r="1.013"/>
				<circle style="fill:#FFFFFF;" cx="72.855" cy="75.247" r="1.013"/>
				<path style="fill:#FFFFFF;" d="M82.732,76.26c0.56,0,1.014-0.454,1.014-1.013s-0.454-1.013-1.014-1.013
					c-0.56,0-1.013,0.454-1.013,1.013S82.173,76.26,82.732,76.26z"/>
				<circle style="fill:#FFFFFF;" cx="43.223" cy="85.124" r="1.013"/>
				<circle style="fill:#FFFFFF;" cx="53.1" cy="85.124" r="1.013"/>
				<circle style="fill:#FFFFFF;" cx="62.978" cy="85.124" r="1.013"/>
				<circle style="fill:#FFFFFF;" cx="72.855" cy="85.124" r="1.013"/>
				<path style="fill:#FFFFFF;" d="M82.732,86.137c0.56,0,1.014-0.454,1.014-1.013s-0.454-1.013-1.014-1.013
					c-0.56,0-1.013,0.454-1.013,1.013S82.173,86.137,82.732,86.137z"/>
				<circle style="fill:#FFFFFF;" cx="43.223" cy="95.001" r="1.013"/>
				<circle style="fill:#FFFFFF;" cx="53.1" cy="95.001" r="1.013"/>
				<circle style="fill:#FFFFFF;" cx="62.978" cy="95.001" r="1.013"/>
				<circle style="fill:#FFFFFF;" cx="72.855" cy="95.001" r="1.013"/>
				<path style="fill:#FFFFFF;" d="M82.732,96.015c0.56,0,1.014-0.454,1.014-1.013c0-0.56-0.454-1.013-1.014-1.013
					c-0.56,0-1.013,0.454-1.013,1.013C81.719,95.561,82.173,96.015,82.732,96.015z"/>
				<circle style="fill:#FFFFFF;" cx="43.223" cy="104.879" r="1.013"/>
				<circle style="fill:#FFFFFF;" cx="53.1" cy="104.879" r="1.013"/>
				<circle style="fill:#FFFFFF;" cx="62.978" cy="104.879" r="1.013"/>
				<circle style="fill:#FFFFFF;" cx="72.855" cy="104.879" r="1.013"/>
				<path style="fill:#FFFFFF;" d="M82.732,105.892c0.56,0,1.014-0.454,1.014-1.013s-0.454-1.013-1.014-1.013
					c-0.56,0-1.013,0.454-1.013,1.013S82.173,105.892,82.732,105.892z"/>
				<path style="fill:#FFFFFF;" d="M43.223,115.77c0.56,0,1.013-0.454,1.013-1.013c0-0.56-0.454-1.014-1.013-1.014
					s-1.013,0.454-1.013,1.014C42.21,115.316,42.664,115.77,43.223,115.77z"/>
				<path style="fill:#FFFFFF;" d="M53.1,115.77c0.56,0,1.013-0.454,1.013-1.013c0-0.56-0.454-1.014-1.013-1.014
					s-1.013,0.454-1.013,1.014C52.087,115.316,52.541,115.77,53.1,115.77z"/>
				<path style="fill:#FFFFFF;" d="M62.978,115.77c0.56,0,1.013-0.454,1.013-1.013c0-0.56-0.454-1.014-1.013-1.014
					s-1.013,0.454-1.013,1.014C61.964,115.316,62.418,115.77,62.978,115.77z"/>
				<path style="fill:#FFFFFF;" d="M72.855,115.77c0.56,0,1.013-0.454,1.013-1.013c0-0.56-0.454-1.014-1.013-1.014
					s-1.013,0.454-1.013,1.014C71.842,115.316,72.295,115.77,72.855,115.77z"/>
				<path style="fill:#FFFFFF;" d="M82.732,115.77c0.56,0,1.014-0.454,1.014-1.013c0-0.56-0.454-1.014-1.014-1.014
					c-0.56,0-1.013,0.454-1.013,1.014C81.719,115.316,82.173,115.77,82.732,115.77z"/>
				<circle style="fill:#FFFFFF;" cx="43.223" cy="124.633" r="1.013"/>
				<circle style="fill:#FFFFFF;" cx="53.1" cy="124.633" r="1.013"/>
				<circle style="fill:#FFFFFF;" cx="62.978" cy="124.633" r="1.013"/>
				<circle style="fill:#FFFFFF;" cx="72.855" cy="124.633" r="1.013"/>
				<path style="fill:#FFFFFF;" d="M82.732,125.647c0.56,0,1.014-0.454,1.014-1.013s-0.454-1.013-1.014-1.013
					c-0.56,0-1.013,0.454-1.013,1.013S82.173,125.647,82.732,125.647z"/>
				<circle style="fill:#FFFFFF;" cx="43.223" cy="134.511" r="1.013"/>
				<circle style="fill:#FFFFFF;" cx="53.1" cy="134.511" r="1.013"/>
				<circle style="fill:#FFFFFF;" cx="62.978" cy="134.511" r="1.013"/>
				<circle style="fill:#FFFFFF;" cx="72.855" cy="134.511" r="1.013"/>
				<path style="fill:#FFFFFF;" d="M82.732,135.524c0.56,0,1.014-0.454,1.014-1.013c0-0.56-0.454-1.013-1.014-1.013
					c-0.56,0-1.013,0.454-1.013,1.013C81.719,135.07,82.173,135.524,82.732,135.524z"/>
				<circle style="fill:#FFFFFF;" cx="43.223" cy="144.388" r="1.013"/>
				<circle style="fill:#FFFFFF;" cx="53.1" cy="144.388" r="1.013"/>
				<circle style="fill:#FFFFFF;" cx="62.978" cy="144.388" r="1.013"/>
				<circle style="fill:#FFFFFF;" cx="72.855" cy="144.388" r="1.013"/>
				<path style="fill:#FFFFFF;" d="M82.732,145.401c0.56,0,1.014-0.454,1.014-1.013c0-0.56-0.454-1.013-1.014-1.013
					c-0.56,0-1.013,0.454-1.013,1.013C81.719,144.948,82.173,145.401,82.732,145.401z"/>
				<circle style="fill:#FFFFFF;" cx="43.223" cy="154.265" r="1.013"/>
				<circle style="fill:#FFFFFF;" cx="53.1" cy="154.265" r="1.013"/>
				<circle style="fill:#FFFFFF;" cx="62.978" cy="154.265" r="1.013"/>
				<circle style="fill:#FFFFFF;" cx="72.855" cy="154.265" r="1.013"/>
				<path style="fill:#FFFFFF;" d="M82.732,155.279c0.56,0,1.014-0.454,1.014-1.013c0-0.56-0.454-1.013-1.014-1.013
					c-0.56,0-1.013,0.454-1.013,1.013C81.719,154.825,82.173,155.279,82.732,155.279z"/>
			</g>
			<g>
				<path style="fill:#FFFFFF;" d="M24.01,108.184c0-0.28,0.22-0.5,0.5-0.5l0,0c0.27,0,0.5,0.22,0.5,0.5l0,0
					c0,0.27-0.23,0.5-0.5,0.5l0,0C24.23,108.684,24.01,108.454,24.01,108.184z M24.01,103.184c0-0.28,0.22-0.5,0.5-0.5l0,0
					c0.27,0,0.5,0.22,0.5,0.5l0,0c0,0.28-0.23,0.5-0.5,0.5l0,0C24.23,103.684,24.01,103.464,24.01,103.184z M24.01,98.184
					c0-0.28,0.22-0.5,0.5-0.5l0,0c0.27,0,0.5,0.22,0.5,0.5l0,0c0,0.28-0.23,0.5-0.5,0.5l0,0C24.23,98.684,24.01,98.464,24.01,98.184
					z M24.01,93.184c0-0.28,0.22-0.5,0.5-0.5l0,0c0.27,0,0.5,0.22,0.5,0.5l0,0c0,0.28-0.23,0.5-0.5,0.5l0,0
					C24.23,93.684,24.01,93.464,24.01,93.184z M24.01,88.184c0-0.28,0.22-0.5,0.5-0.5l0,0c0.27,0,0.5,0.22,0.5,0.5l0,0
					c0,0.28-0.23,0.5-0.5,0.5l0,0C24.23,88.684,24.01,88.464,24.01,88.184z M24.01,83.184c0-0.28,0.22-0.5,0.5-0.5l0,0
					c0.27,0,0.5,0.22,0.5,0.5l0,0c0,0.28-0.23,0.5-0.5,0.5l0,0C24.23,83.684,24.01,83.464,24.01,83.184z M24.01,78.184
					c0-0.28,0.22-0.5,0.5-0.5l0,0c0.27,0,0.5,0.22,0.5,0.5l0,0c0,0.27-0.23,0.5-0.5,0.5l0,0C24.23,78.684,24.01,78.454,24.01,78.184
					z M24.01,73.184c0-0.28,0.22-0.5,0.5-0.5l0,0c0.27,0,0.5,0.22,0.5,0.5l0,0c0,0.27-0.23,0.5-0.5,0.5l0,0
					C24.23,73.684,24.01,73.454,24.01,73.184z M24.01,68.184c0-0.28,0.22-0.5,0.5-0.5l0,0c0.27,0,0.5,0.22,0.5,0.5l0,0
					c0,0.27-0.23,0.5-0.5,0.5l0,0C24.23,68.684,24.01,68.454,24.01,68.184z M24.01,63.184c0-0.28,0.22-0.5,0.5-0.5l0,0
					c0.27,0,0.5,0.22,0.5,0.5l0,0c0,0.28-0.23,0.5-0.5,0.5l0,0C24.23,63.684,24.01,63.464,24.01,63.184z M24.01,58.184
					c0-0.28,0.22-0.5,0.5-0.5l0,0c0.27,0,0.5,0.22,0.5,0.5l0,0c0,0.28-0.23,0.5-0.5,0.5l0,0C24.23,58.684,24.01,58.464,24.01,58.184
					z M24.01,53.184c0-0.28,0.22-0.5,0.5-0.5l0,0c0.27,0,0.5,0.22,0.5,0.5l0,0c0,0.28-0.23,0.5-0.5,0.5l0,0
					C24.23,53.684,24.01,53.464,24.01,53.184z M24.01,48.184c0-0.28,0.22-0.5,0.5-0.5l0,0c0.27,0,0.5,0.22,0.5,0.5l0,0
					c0,0.28-0.23,0.5-0.5,0.5l0,0C24.23,48.684,24.01,48.464,24.01,48.184z M24.01,43.184c0-0.28,0.22-0.5,0.5-0.5l0,0
					c0.27,0,0.5,0.22,0.5,0.5l0,0c0,0.28-0.23,0.5-0.5,0.5l0,0C24.23,43.684,24.01,43.464,24.01,43.184z M24.01,38.184
					c0-0.28,0.22-0.5,0.5-0.5l0,0c0.27,0,0.5,0.22,0.5,0.5l0,0c0,0.27-0.23,0.5-0.5,0.5l0,0C24.23,38.684,24.01,38.454,24.01,38.184
					z M24.01,33.184c0-0.28,0.22-0.5,0.5-0.5l0,0c0.27,0,0.5,0.22,0.5,0.5l0,0c0,0.27-0.23,0.5-0.5,0.5l0,0
					C24.23,33.684,24.01,33.454,24.01,33.184z M24.01,28.184c0-0.28,0.22-0.5,0.5-0.5l0,0c0.27,0,0.5,0.22,0.5,0.5l0,0
					c0,0.28-0.23,0.5-0.5,0.5l0,0C24.23,28.684,24.01,28.464,24.01,28.184z M24.01,23.184c0-0.28,0.22-0.5,0.5-0.5l0,0
					c0.27,0,0.5,0.22,0.5,0.5l0,0c0,0.28-0.23,0.5-0.5,0.5l0,0C24.23,23.684,24.01,23.464,24.01,23.184z"/>
			</g>
			<g>
				<g>
					<g>
						<g>
							<path style="fill:#FFD500;" d="M146.89,155.206c-0.128,0-0.256-0.049-0.354-0.146l-8.593-8.593
								c-0.195-0.195-0.195-0.512,0-0.707s0.512-0.195,0.707,0l8.593,8.593c0.195,0.195,0.195,0.512,0,0.707
								C147.146,155.157,147.018,155.206,146.89,155.206z"/>
						</g>
						<g>
							<path style="fill:#FFD500;" d="M138.297,155.206c-0.128,0-0.256-0.049-0.354-0.146c-0.195-0.195-0.195-0.512,0-0.707
								l8.593-8.593c0.195-0.195,0.512-0.195,0.707,0c0.195,0.195,0.195,0.512,0,0.707l-8.593,8.593
								C138.553,155.157,138.425,155.206,138.297,155.206z"/>
						</g>
					</g>
				</g>
				<g>
					<g>
						<g>
							<path style="fill:#FFD500;" d="M397.437,224.802c-0.128,0-0.256-0.049-0.354-0.146l-8.592-8.592
								c-0.195-0.195-0.195-0.512,0-0.707c0.195-0.195,0.512-0.195,0.707,0l8.592,8.592c0.195,0.195,0.195,0.512,0,0.707
								C397.693,224.753,397.565,224.802,397.437,224.802z"/>
						</g>
						<g>
							<path style="fill:#FFD500;" d="M388.845,224.802c-0.128,0-0.256-0.049-0.354-0.146c-0.195-0.195-0.195-0.512,0-0.707
								l8.592-8.592c0.195-0.195,0.512-0.195,0.707,0c0.195,0.195,0.195,0.512,0,0.707l-8.592,8.592
								C389.101,224.753,388.973,224.802,388.845,224.802z"/>
						</g>
					</g>
				</g>
			</g>
			<g>
				<g>
					<g>
						<path style="fill:#FFFFFF;" d="M448.444,225.222c-2.573,0-4.666-2.094-4.666-4.667c0-2.573,2.093-4.667,4.666-4.667
							c2.573,0,4.667,2.093,4.667,4.667C453.111,223.128,451.018,225.222,448.444,225.222z M448.444,216.889
							c-2.021,0-3.666,1.645-3.666,3.667c0,2.022,1.645,3.667,3.666,3.667c2.022,0,3.667-1.645,3.667-3.667
							C452.111,218.534,450.467,216.889,448.444,216.889z"/>
					</g>
				</g>
			</g>
			<g>
				<g>
					<g>
						<path style="fill:#FFFFFF;" d="M56.468,244.281c-2.573,0-4.667-2.093-4.667-4.667c0-2.573,2.094-4.666,4.667-4.666
							c2.573,0,4.666,2.093,4.666,4.666C61.134,242.188,59.042,244.281,56.468,244.281z M56.468,235.948
							c-2.022,0-3.667,1.645-3.667,3.666c0,2.021,1.645,3.667,3.667,3.667c2.021,0,3.666-1.645,3.666-3.667
							C60.134,237.593,58.49,235.948,56.468,235.948z"/>
					</g>
				</g>
			</g>
			<g>
				<path style="fill:#00B19C;" d="M241.333,38.444c0-1.893,1.528-3.422,3.422-3.422l0,0c1.893,0,3.422,1.528,3.422,3.422l0,0
					c0,1.893-1.528,3.422-3.422,3.422l0,0C242.861,41.866,241.333,40.338,241.333,38.444z M213.961,38.444
					c0-1.893,1.528-3.422,3.421-3.422l0,0c1.893,0,3.421,1.528,3.421,3.422l0,0c0,1.893-1.528,3.422-3.421,3.422l0,0
					C215.489,41.866,213.961,40.338,213.961,38.444z M186.589,38.444c0-1.893,1.528-3.422,3.421-3.422l0,0
					c1.893,0,3.422,1.528,3.422,3.422l0,0c0,1.893-1.528,3.422-3.422,3.422l0,0C188.117,41.866,186.589,40.338,186.589,38.444z
					 M159.217,38.444c0-1.893,1.55-3.422,3.422-3.422l0,0c1.893,0,3.421,1.528,3.421,3.422l0,0c0,1.893-1.528,3.422-3.421,3.422l0,0
					C160.767,41.866,159.217,40.338,159.217,38.444z"/>
			</g>
			<g>
				<path style="fill:#E3E3E3;" d="M362.732,259.962c-0.128,0-0.256-0.049-0.353-0.146l-16-16c-0.195-0.195-0.195-0.512,0-0.707
					c0.195-0.195,0.512-0.195,0.707,0l16,16c0.195,0.195,0.195,0.512,0,0.707C362.988,259.913,362.86,259.962,362.732,259.962z"/>
			</g>
		</g>
	</g>
</g>
</svg>
