<svg xmlns="http://www.w3.org/2000/svg" viewBox="0 0 32 32">
  <title>spooky-03</title>
  <g id="halloween">
    <g id="calabaza">
      <path d="M31.2,17.2a7.3,7.3,0,0,1-1.8,1.7c-.2.1-.2.2-.2.4a6.9,6.9,0,0,1,.5,1.3.4.4,0,0,1-.2.6c-.3.1-.5,0-.7-.3s-.3-.8-.4-1.2h-.2a12.8,12.8,0,0,1-2.4,1.1c-.1.1-.1.1-.1.3l.3,1c0,.4-.1.6-.4.7s-.5-.1-.5-.4l-.3-1.1h-.2a19.4,19.4,0,0,1-3.3.7c-.1.1-.2.1-.2.3s.1.6.2.9-.2.6-.5.6-.4-.1-.5-.5-.1-.6-.1-.9,0-.2-.2-.2l-3.3.2-.2.2a4.8,4.8,0,0,1,0,1.2c0,.3-.1.5-.4.5a.5.5,0,0,1-.5-.5V22.4c0-.1,0-.2-.2-.2L12.2,22c-.2,0-.2,0-.3.2a3.8,3.8,0,0,1-.1,1c0,.3-.2.5-.5.4s-.5-.2-.4-.6.1-.6.1-1,0-.1-.1-.2a18.6,18.6,0,0,1-3.4-.7H7.3a3,3,0,0,1-.2,1c-.1.4-.3.5-.6.5s-.4-.3-.3-.7.1-.7.2-1,.1-.2-.1-.3L3.8,19.6c-.1-.1-.2-.1-.2,0l-.3.8c-.1.3-.4.5-.6.4a.5.5,0,0,1-.3-.7,3.6,3.6,0,0,1,.4-.9c.1-.2,0-.3-.2-.4L1.1,17.4a.7.7,0,0,1-.1-.6.5.5,0,0,1,.8,0L3,17.9c.2.1.2.1.3-.1a5,5,0,0,1,.5-1.3c.1-.4.3-.5.6-.4a.5.5,0,0,1,.3.7l-.6,1.6c-.1.1-.1.2,0,.2a15.1,15.1,0,0,0,2.6,1.2c.1-.5.3-.9.4-1.4s.3-.5.6-.4.4.3.3.7l-.3,1.2c-.1.2,0,.3.1.3l3.2.7c.2,0,.2,0,.2-.2s.1-.8.1-1.3a.6.6,0,0,1,.6-.5.5.5,0,0,1,.4.6c-.1.5-.1.9-.2,1.3s.1.3.2.3l3.1.2.2-.2V19.9a.5.5,0,0,1,.5-.5.5.5,0,0,1,.4.5,4.8,4.8,0,0,1,0,1.2c0,.1.1.2.3.2l3-.2c.2,0,.3-.1.2-.3s-.1-.9-.1-1.3a.4.4,0,0,1,.2-.5.5.5,0,0,1,.5,0,.5.5,0,0,1,.2.4c.1.4.1.9.2,1.3s0,.2.2.2l3.1-.7c.2,0,.2-.1.2-.3a5,5,0,0,1-.4-1.3.5.5,0,0,1,.4-.6c.2-.1.5.1.6.4l.3,1.2c0,.2.1.2.2.2l2.2-1c.2-.1.2-.2.1-.4s-.3-.7-.4-1.1-.1-.6.2-.7.5,0,.7.4.3.7.4,1.1a6.4,6.4,0,0,0,1.5-1.3q.4-.6.9,0Z" style="fill: #fff"/>
      <path d="M3.8,8.5,7.9,9.8c.2,0,.2.1.2.2a2.4,2.4,0,0,0,1.6,2.7,2.4,2.4,0,0,0,2.8-1.3c.1-.2.2-.2.4-.1l1.8.5a8.6,8.6,0,0,1-3.4,3.4,4.5,4.5,0,0,1-5-.9,6.7,6.7,0,0,1-2.2-3.8A6.4,6.4,0,0,1,3.8,8.5Z" style="fill: #fff"/>
      <path d="M28.4,8.5a15,15,0,0,1-.6,2.9,5.7,5.7,0,0,1-2.3,3.2,4.5,4.5,0,0,1-5.8-.1A8.5,8.5,0,0,1,17.6,12c-.1-.1-.1-.2.1-.2l1.6-.5c.2-.1.2-.1.3.1a2.3,2.3,0,0,0,2.7,1.3,2.4,2.4,0,0,0,1.8-2.4c0-.5,0-.5.4-.6Z" style="fill: #fff"/>
      <path d="M17.5,18H14.7c0-.2.1-.2.1-.3L16,16.2h.2Z" style="fill: #fff"/>
    </g>
  </g>
</svg>
