<svg xmlns="http://www.w3.org/2000/svg" viewBox="0 0 32 32">
  <title>spooky-03-04</title>
  <g id="halloween">
    <g id="Happy">
      <path d="M31.2,17.2a7.3,7.3,0,0,1-1.8,1.7c-.2.1-.2.2-.1.4a6.9,6.9,0,0,0,.5,1.3.5.5,0,0,1-.9.3l-.5-1.2h-.2a9.7,9.7,0,0,1-2.3,1.1c-.2.1-.2.1-.2.3l.3,1a.6.6,0,0,1-.3.7.5.5,0,0,1-.6-.4l-.3-1.1h-.2a18.3,18.3,0,0,1-3.2.7c-.2.1-.3.1-.2.3a2.8,2.8,0,0,0,.1.9c0,.4-.1.6-.4.6s-.5-.1-.6-.5a2.8,2.8,0,0,0-.1-.9c0-.2,0-.2-.2-.2l-3.2.2c-.2,0-.2.1-.2.2v1.2a.5.5,0,1,1-1,0V22.4c0-.1,0-.2-.2-.2L12.2,22c-.2,0-.2,0-.2.2s-.1.6-.2,1-.2.5-.5.4-.4-.2-.4-.6.1-.6.1-1,0-.1-.1-.2a17.6,17.6,0,0,1-3.3-.7H7.4l-.3,1c-.1.4-.3.5-.6.5s-.4-.3-.3-.7l.3-1c0-.2,0-.2-.2-.3L3.8,19.6c-.1-.1-.1-.1-.2,0l-.3.8c-.1.3-.3.5-.6.4a.5.5,0,0,1-.3-.7l.4-.9c.1-.2,0-.3-.1-.4a10.7,10.7,0,0,1-1.6-1.4.7.7,0,0,1-.1-.6.5.5,0,0,1,.8,0L3,17.9c.2.1.2.1.3-.1s.3-.9.5-1.3.4-.5.6-.4a.5.5,0,0,1,.3.7l-.6,1.6c-.1.1-.1.2.1.2a11.5,11.5,0,0,0,2.5,1.2,7.4,7.4,0,0,0,.4-1.4c.1-.3.3-.5.6-.4s.4.3.3.7l-.3,1.2c-.1.2,0,.3.1.3l3.2.7c.2,0,.2,0,.2-.2a6.9,6.9,0,0,1,.2-1.3.5.5,0,0,1,.5-.5.5.5,0,0,1,.4.6c-.1.5-.1.9-.2,1.3s.1.3.2.3l3.1.2c.2,0,.2-.1.2-.2V19.9a.5.5,0,0,1,1,0v1.2c0,.1,0,.2.2.2l3-.2a.3.3,0,0,0,.3-.3,5.9,5.9,0,0,1-.2-1.3c0-.2,0-.4.2-.5a.4.4,0,0,1,.5,0,.5.5,0,0,1,.2.4c.1.4.1.9.2,1.3s0,.2.2.2l3.1-.7c.2,0,.2-.1.2-.3l-.3-1.3a.4.4,0,0,1,.3-.6c.3-.1.5.1.6.4l.3,1.2c0,.2.1.2.2.2l2.2-1c.2-.1.2-.2.1-.4a7.6,7.6,0,0,0-.4-1.1c-.1-.4,0-.6.3-.7s.5,0,.6.4.3.7.4,1.1a6.4,6.4,0,0,0,1.5-1.3q.4-.6.9,0Z" style="fill: #fff"/>
      <path d="M28.2,10.3c-.1.4-.3.8-.4,1.1a6,6,0,0,1-2.2,3.2,4.7,4.7,0,0,1-5.9-.1A6.2,6.2,0,0,1,17.6,12c-1.1-2.5-.2-6,1.4-6.5s.9.3,2.2.4,3.2-1.6,4.6-1.2S28.5,8.2,28.2,10.3Z" style="fill: #fff"/>
      <path d="M17.5,18H14.7c0-.2.1-.2.1-.3L16,16.2h.2C16.6,16.8,17.1,17.3,17.5,18Z" style="fill: #fff"/>
      <path d="M4.2,10.6l.3,1.1a6,6,0,0,0,2.2,3.2,4.3,4.3,0,0,0,5.6-.1,6.2,6.2,0,0,0,2-2.5c1.1-2.5.2-6-1.3-6.5s-.9.3-2.1.4S7.8,4.6,6.4,5,3.9,8.5,4.2,10.6Z" style="fill: #fff"/>
    </g>
  </g>
</svg>
